{
    "asset": {
        "version": "2.0",
        "generator": "Open Asset Import Library (assimp v5.0.5eb040c7)"
    },
    "accessors": [
        {
            "bufferView": 0,
            "byteOffset": 0,
            "componentType": 5126,
            "count": 1251,
            "type": "VEC3",
            "max": [
                0.007505950052291155,
                0.015807300806045533,
                0.012376599945127964
            ],
            "min": [
                -0.007505950052291155,
                0.00005688779856427573,
                -0.034667398780584338
            ]
        },
        {
            "bufferView": 1,
            "byteOffset": 0,
            "componentType": 5126,
            "count": 1251,
            "type": "VEC2",
            "max": [
                0.5990960001945496,
                0.9988695383071899
            ],
            "min": [
                0.2642959952354431,
                0.004871010780334473
            ]
        },
        {
            "bufferView": 2,
            "byteOffset": 0,
            "componentType": 5125,
            "count": 7494,
            "type": "SCALAR",
            "max": [
                1250
            ],
            "min": [
                0
            ]
        },
        {
            "bufferView": 3,
            "byteOffset": 0,
            "componentType": 5126,
            "count": 216,
            "type": "VEC3",
            "max": [
                0.038013000041246417,
                0.01492989994585514,
                0.008010629564523697
            ],
            "min": [
                -0.038013000041246417,
                0.013495500199496746,
                -0.004013699945062399
            ]
        },
        {
            "bufferView": 4,
            "byteOffset": 0,
            "componentType": 5126,
            "count": 216,
            "type": "VEC2",
            "max": [
                0.9999229907989502,
                0.21145302057266236
            ],
            "min": [
                0.0,
                0.09215801954269409
            ]
        },
        {
            "bufferView": 5,
            "byteOffset": 0,
            "componentType": 5125,
            "count": 1248,
            "type": "SCALAR",
            "max": [
                215
            ],
            "min": [
                0
            ]
        }
    ],
    "buffers": [
        {
            "byteLength": 64308,
            "uri": "result.bin"
        }
    ],
    "bufferViews": [
        {
            "buffer": 0,
            "byteOffset": 0,
            "byteLength": 15012,
            "target": 34962
        },
        {
            "buffer": 0,
            "byteOffset": 15012,
            "byteLength": 10008,
            "target": 34962
        },
        {
            "buffer": 0,
            "byteOffset": 25020,
            "byteLength": 29976,
            "target": 34963
        },
        {
            "buffer": 0,
            "byteOffset": 54996,
            "byteLength": 2592,
            "target": 34962
        },
        {
            "buffer": 0,
            "byteOffset": 57588,
            "byteLength": 1728,
            "target": 34962
        },
        {
            "buffer": 0,
            "byteOffset": 59316,
            "byteLength": 4992,
            "target": 34963
        }
    ],
    "materials": [
        {
            "name": "DefaultMaterial",
            "pbrMetallicRoughness": {
                "baseColorFactor": [
                    0.6000000238418579,
                    0.6000000238418579,
                    0.6000000238418579,
                    1.0
                ],
                "metallicFactor": 0.0
            }
        }
    ],
    "meshes": [
        {
            "name": "dfly_body",
            "primitives": [
                {
                    "mode": 4,
                    "material": 0,
                    "indices": 2,
                    "attributes": {
                        "POSITION": 0,
                        "TEXCOORD_0": 1
                    }
                }
            ]
        },
        {
            "name": "dfly_wing",
            "primitives": [
                {
                    "mode": 4,
                    "material": 0,
                    "indices": 5,
                    "attributes": {
                        "POSITION": 3,
                        "TEXCOORD_0": 4
                    }
                }
            ]
        }
    ],
    "nodes": [
        {
            "name": "input.obj",
            "children": [
                1,
                2
            ]
        },
        {
            "name": "dfly_body",
            "mesh": 0
        },
        {
            "name": "dfly_wing",
            "mesh": 1
        }
    ],
    "scenes": [
        {
            "nodes": [
                0
            ]
        }
    ],
    "scene": 0
}