{
    "asset": {
        "version": "2.0",
        "generator": "Open Asset Import Library (assimp v5.0.5eb040c7)"
    },
    "accessors": [
        {
            "bufferView": 0,
            "byteOffset": 0,
            "componentType": 5126,
            "count": 1470,
            "type": "VEC3",
            "max": [
                0.13267900049686433,
                0.19920800626277924,
                0.12198500335216522
            ],
            "min": [
                -0.12974399328231812,
                0.0,
                -0.12206300348043442
            ]
        },
        {
            "bufferView": 1,
            "byteOffset": 0,
            "componentType": 5126,
            "count": 1470,
            "type": "VEC2",
            "max": [
                0.9683290123939514,
                0.9979869723320007
            ],
            "min": [
                0.014419999904930592,
                0.0020130276679992677
            ]
        },
        {
            "bufferView": 2,
            "byteOffset": 0,
            "componentType": 5125,
            "count": 13344,
            "type": "SCALAR",
            "max": [
                1469
            ],
            "min": [
                0
            ]
        }
    ],
    "buffers": [
        {
            "byteLength": 82776,
            "uri": "result.bin"
        }
    ],
    "bufferViews": [
        {
            "buffer": 0,
            "byteOffset": 0,
            "byteLength": 17640,
            "target": 34962
        },
        {
            "buffer": 0,
            "byteOffset": 17640,
            "byteLength": 11760,
            "target": 34962
        },
        {
            "buffer": 0,
            "byteOffset": 29400,
            "byteLength": 53376,
            "target": 34963
        }
    ],
    "materials": [
        {
            "name": "DefaultMaterial",
            "pbrMetallicRoughness": {
                "baseColorFactor": [
                    0.6000000238418579,
                    0.6000000238418579,
                    0.6000000238418579,
                    1.0
                ],
                "metallicFactor": 0.0
            }
        }
    ],
    "meshes": [
        {
            "name": "Grass_20",
            "primitives": [
                {
                    "mode": 4,
                    "material": 0,
                    "indices": 2,
                    "attributes": {
                        "POSITION": 0,
                        "TEXCOORD_0": 1
                    }
                }
            ]
        }
    ],
    "nodes": [
        {
            "name": "input.obj",
            "children": [
                1
            ]
        },
        {
            "name": "Grass_20",
            "mesh": 0
        }
    ],
    "scenes": [
        {
            "nodes": [
                0
            ]
        }
    ],
    "scene": 0
}