{
    "asset": {
        "version": "2.0",
        "generator": "Open Asset Import Library (assimp v5.0.5eb040c7)"
    },
    "accessors": [
        {
            "bufferView": 0,
            "byteOffset": 0,
            "componentType": 5126,
            "count": 16337,
            "type": "VEC3",
            "max": [
                13.816900253295899,
                6.0954999923706059,
                60.50619888305664
            ],
            "min": [
                -25.061800003051759,
                -5.3632001876831059,
                -0.015799999237060548
            ]
        },
        {
            "bufferView": 1,
            "byteOffset": 0,
            "componentType": 5126,
            "count": 16337,
            "type": "VEC3",
            "max": [
                1.0,
                1.0,
                1.0
            ],
            "min": [
                -1.0,
                -1.0,
                -1.0
            ]
        },
        {
            "bufferView": 2,
            "byteOffset": 0,
            "componentType": 5126,
            "count": 16337,
            "type": "VEC2",
            "max": [
                0.9164999723434448,
                0.9817000031471252
            ],
            "min": [
                0.020400000736117364,
                0.017700016498565675
            ]
        },
        {
            "bufferView": 3,
            "byteOffset": 0,
            "componentType": 5125,
            "count": 95028,
            "type": "SCALAR",
            "max": [
                16336
            ],
            "min": [
                0
            ]
        }
    ],
    "buffers": [
        {
            "byteLength": 902896,
            "uri": "result.bin"
        }
    ],
    "bufferViews": [
        {
            "buffer": 0,
            "byteOffset": 0,
            "byteLength": 196044,
            "target": 34962
        },
        {
            "buffer": 0,
            "byteOffset": 196044,
            "byteLength": 196044,
            "target": 34962
        },
        {
            "buffer": 0,
            "byteOffset": 392088,
            "byteLength": 130696,
            "target": 34962
        },
        {
            "buffer": 0,
            "byteOffset": 522784,
            "byteLength": 380112,
            "target": 34963
        }
    ],
    "materials": [
        {
            "name": "DefaultMaterial",
            "pbrMetallicRoughness": {
                "baseColorFactor": [
                    0.6000000238418579,
                    0.6000000238418579,
                    0.6000000238418579,
                    1.0
                ],
                "metallicFactor": 0.0
            }
        },
        {
            "name": "20963_Flamingo_v1",
            "pbrMetallicRoughness": {
                "baseColorFactor": [
                    0.6000000238418579,
                    0.6000000238418579,
                    0.6000000238418579,
                    1.0
                ],
                "metallicFactor": 0.0
            }
        }
    ],
    "meshes": [
        {
            "name": "20963_Flamingo_v1",
            "primitives": [
                {
                    "mode": 4,
                    "material": 1,
                    "indices": 3,
                    "attributes": {
                        "POSITION": 0,
                        "NORMAL": 1,
                        "TEXCOORD_0": 2
                    }
                }
            ]
        }
    ],
    "nodes": [
        {
            "name": "input.obj",
            "children": [
                1
            ]
        },
        {
            "name": "20963_Flamingo_v1",
            "mesh": 0
        }
    ],
    "scenes": [
        {
            "nodes": [
                0
            ]
        }
    ],
    "scene": 0
}