{
	"asset":{
		"version":"2.0",
		"generator":"Created using the official Cinema 4D glTF Exporter 1.000x284978"
	},
	"buffers":[{
		"uri":"data:application/octet-stream;base64,",
		"byteLength":840
	},
	{
		"uri":"data:application/octet-stream;base64,",
		"byteLength":840
	},
	{
		"uri":"data:application/octet-stream;base64,",
		"byteLength":840
	},
	{
		"uri":"data:application/octet-stream;base64,",
		"byteLength":840
	},
	{
		"uri":"data:application/octet-stream;base64,",
		"byteLength":840
	},
	{
		"uri":"data:application/octet-stream;base64,",
		"byteLength":2968
	},
	{
		"uri":"data:application/octet-stream;base64,",
		"byteLength":2984
	},
	{
		"uri":"data:application/octet-stream;base64,",
		"byteLength":6376
	},
	{
		"uri":"data:application/octet-stream;base64,",
		"byteLength":329048
	},
	{
		"uri":"data:application/octet-stream;base64,",
		"byteLength":916
	},
	{
		"uri":"data:application/octet-stream;base64,",
		"byteLength":605688
	},
	{
		"uri":"data:application/octet-stream;base64,",
		"byteLength":992
	},
	{
		"uri":"data:application/octet-stream;base64,",
		"byteLength":617200
	},
	{
		"uri":"data:application/octet-stream;base64,",
		"byteLength":3128
	}],
	"scenes":[{
		"nodes":[0,
		1,
		2,
		3,
		4,
		5,
		8,
		11,
		14,
		17]
	}],
	"nodes":[{
		"name":"Cube.4",
		"translation":[384.5534362792969,
		7.440517902374268,
		-75.38444519042969],
		"rotation":[0.0,
		-0.42697444558143618,
		0.0,
		-0.9042636752128601],
		"scale":[1.0,
		1.0,
		1.0],
		"mesh":0
	},
	{
		"name":"Cube.3",
		"translation":[-73.63475036621094,
		47.586124420166019,
		-452.0316162109375],
		"rotation":[0.0,
		-0.337494432926178,
		0.0,
		0.9413275122642517],
		"scale":[1.0,
		1.0,
		1.0],
		"mesh":1
	},
	{
		"name":"Cube.2",
		"translation":[842.5962524414063,
		47.586124420166019,
		302.0747985839844],
		"rotation":[0.0,
		-0.337494432926178,
		0.0,
		0.9413275122642517],
		"scale":[1.0,
		1.0,
		1.0],
		"mesh":2
	},
	{
		"name":"Cube.1",
		"translation":[761.6246948242188,
		96.83672332763672,
		-532.8034057617188],
		"rotation":[0.0,
		-0.42697444558143618,
		0.0,
		-0.9042636752128601],
		"scale":[1.0,
		1.0,
		1.0],
		"mesh":3
	},
	{
		"name":"Cube",
		"translation":[10.209866523742676,
		47.586124420166019,
		385.6382141113281],
		"rotation":[0.0,
		-0.42697444558143618,
		0.0,
		-0.9042636752128601],
		"scale":[1.0,
		1.0,
		1.0],
		"mesh":4
	},
	{
		"name":"Boole.3",
		"children":[6,
		7]
	},
	{
		"name":"Cube",
		"translation":[387.5348205566406,
		0.0,
		-72.9312515258789],
		"rotation":[0.0,
		-0.42697444558143618,
		0.0,
		-0.9042636752128601],
		"scale":[1.0,
		1.0,
		1.0],
		"mesh":5
	},
	{
		"name":"Plane",
		"translation":[278.854248046875,
		18.783655166625978,
		16.884004592895509],
		"rotation":[0.0,
		0.0,
		0.0,
		-1.0],
		"scale":[1.0,
		1.0,
		1.0],
		"mesh":6
	},
	{
		"name":"Boole.2",
		"children":[9,
		10]
	},
	{
		"name":"Cube",
		"translation":[387.5348205566406,
		0.0,
		-72.9312515258789],
		"rotation":[0.0,
		-0.42697444558143618,
		0.0,
		-0.9042636752128601],
		"scale":[1.0,
		1.0,
		1.0],
		"mesh":7
	},
	{
		"name":"CityEngineMaterial2_mesh_CityEngineMaterial3",
		"mesh":8
	},
	{
		"name":"Boole.1",
		"translation":[0.0,
		-32.16001510620117,
		0.0],
		"rotation":[0.0,
		0.0,
		0.0,
		-1.0],
		"scale":[1.0,
		1.0,
		1.0],
		"children":[12,
		13]
	},
	{
		"name":"Cube",
		"translation":[387.5348205566406,
		0.0,
		-72.9312515258789],
		"rotation":[0.0,
		-0.42697444558143618,
		0.0,
		-0.9042636752128601],
		"scale":[1.0,
		1.0,
		1.0],
		"mesh":9
	},
	{
		"name":"Landscape",
		"translation":[667.8381958007813,
		55.90695571899414,
		-689.900146484375],
		"rotation":[0.0,
		-0.7107473015785217,
		0.0,
		-0.7034474015235901],
		"scale":[1.0,
		1.0,
		1.0],
		"mesh":10
	},
	{
		"name":"Boole",
		"translation":[0.0,
		-9.080177307128907,
		0.0],
		"rotation":[0.0,
		0.0,
		0.0,
		-1.0],
		"scale":[1.0,
		1.0,
		1.0],
		"children":[15,
		16]
	},
	{
		"name":"Cube",
		"translation":[387.5348205566406,
		0.0,
		-72.9312515258789],
		"rotation":[0.0,
		-0.42697444558143618,
		0.0,
		-0.9042636752128601],
		"scale":[1.0,
		1.0,
		1.0],
		"mesh":11
	},
	{
		"name":"Landscape.1",
		"translation":[268.2171630859375,
		34.80112838745117,
		64.67257690429688],
		"rotation":[0.0,
		-0.9553920030593872,
		0.0,
		0.2953406572341919],
		"scale":[1.0,
		1.0,
		1.0],
		"mesh":12
	},
	{
		"name":"CityEngineMaterial2_mesh_CityEngineMaterial3.1",
		"translation":[827.63720703125,
		46.743507385253909,
		-423.2027893066406],
		"rotation":[4.233501993411437e-9,
		-0.568211019039154,
		-6.130955298999652e-9,
		0.822882890701294],
		"scale":[1.0,
		1.0,
		1.0],
		"mesh":13
	}],
	"meshes":[{
		"name":"Cube.4",
		"primitives":[{
			"attributes":{
				"POSITION":1,
				"NORMAL":2,
				"TEXCOORD_0":3
			},
			"indices":0,
			"material":0
		}]
	},
	{
		"name":"Cube.3",
		"primitives":[{
			"attributes":{
				"POSITION":5,
				"NORMAL":6,
				"TEXCOORD_0":7
			},
			"indices":4,
			"material":0
		}]
	},
	{
		"name":"Cube.2",
		"primitives":[{
			"attributes":{
				"POSITION":9,
				"NORMAL":10,
				"TEXCOORD_0":11
			},
			"indices":8,
			"material":0
		}]
	},
	{
		"name":"Cube.1",
		"primitives":[{
			"attributes":{
				"POSITION":13,
				"NORMAL":14,
				"TEXCOORD_0":15
			},
			"indices":12,
			"material":0
		}]
	},
	{
		"name":"Cube",
		"primitives":[{
			"attributes":{
				"POSITION":17,
				"NORMAL":18,
				"TEXCOORD_0":19
			},
			"indices":16,
			"material":0
		}]
	},
	{
		"name":"Cube",
		"primitives":[{
			"attributes":{
				"POSITION":21,
				"NORMAL":22,
				"TEXCOORD_0":23
			},
			"indices":20
		}]
	},
	{
		"name":"Plane",
		"primitives":[{
			"attributes":{
				"POSITION":25,
				"NORMAL":26,
				"TEXCOORD_0":27
			},
			"indices":24,
			"material":1
		}]
	},
	{
		"name":"Cube",
		"primitives":[{
			"attributes":{
				"POSITION":29,
				"NORMAL":30,
				"TEXCOORD_0":31
			},
			"indices":28
		}]
	},
	{
		"name":"CityEngineMaterial2_mesh_CityEngineMaterial3",
		"primitives":[{
			"attributes":{
				"POSITION":33
			},
			"indices":32,
			"material":2
		}]
	},
	{
		"name":"Cube",
		"primitives":[{
			"attributes":{
				"POSITION":35,
				"NORMAL":36,
				"TEXCOORD_0":37
			},
			"indices":34
		}]
	},
	{
		"name":"Landscape",
		"primitives":[{
			"attributes":{
				"POSITION":39,
				"NORMAL":40,
				"TEXCOORD_0":41
			},
			"indices":38
		}]
	},
	{
		"name":"Cube",
		"primitives":[{
			"attributes":{
				"POSITION":43,
				"NORMAL":44,
				"TEXCOORD_0":45
			},
			"indices":42
		}]
	},
	{
		"name":"Landscape.1",
		"primitives":[{
			"attributes":{
				"POSITION":47,
				"NORMAL":48,
				"TEXCOORD_0":49
			},
			"indices":46
		}]
	},
	{
		"name":"CityEngineMaterial2_mesh_CityEngineMaterial3.1",
		"primitives":[{
			"attributes":{
				"POSITION":51
			},
			"indices":50,
			"material":2
		}]
	}],
	"bufferViews":[{
		"buffer":0,
		"byteOffset":0,
		"byteLength":72,
		"target":34963
	},
	{
		"buffer":0,
		"byteOffset":72,
		"byteLength":768,
		"target":34962,
		"byteStride":32
	},
	{
		"buffer":1,
		"byteOffset":0,
		"byteLength":72,
		"target":34963
	},
	{
		"buffer":1,
		"byteOffset":72,
		"byteLength":768,
		"target":34962,
		"byteStride":32
	},
	{
		"buffer":2,
		"byteOffset":0,
		"byteLength":72,
		"target":34963
	},
	{
		"buffer":2,
		"byteOffset":72,
		"byteLength":768,
		"target":34962,
		"byteStride":32
	},
	{
		"buffer":3,
		"byteOffset":0,
		"byteLength":72,
		"target":34963
	},
	{
		"buffer":3,
		"byteOffset":72,
		"byteLength":768,
		"target":34962,
		"byteStride":32
	},
	{
		"buffer":4,
		"byteOffset":0,
		"byteLength":72,
		"target":34963
	},
	{
		"buffer":4,
		"byteOffset":72,
		"byteLength":768,
		"target":34962,
		"byteStride":32
	},
	{
		"buffer":5,
		"byteOffset":0,
		"byteLength":504,
		"target":34963
	},
	{
		"buffer":5,
		"byteOffset":504,
		"byteLength":2464,
		"target":34962,
		"byteStride":32
	},
	{
		"buffer":6,
		"byteOffset":0,
		"byteLength":648,
		"target":34963
	},
	{
		"buffer":6,
		"byteOffset":648,
		"byteLength":2336,
		"target":34962,
		"byteStride":32
	},
	{
		"buffer":7,
		"byteOffset":0,
		"byteLength":1158,
		"target":34963
	},
	{
		"buffer":7,
		"byteOffset":1160,
		"byteLength":5216,
		"target":34962,
		"byteStride":32
	},
	{
		"buffer":8,
		"byteOffset":0,
		"byteLength":143454,
		"target":34963
	},
	{
		"buffer":8,
		"byteOffset":143456,
		"byteLength":185592,
		"target":34962
	},
	{
		"buffer":9,
		"byteOffset":0,
		"byteLength":84,
		"target":34963
	},
	{
		"buffer":9,
		"byteOffset":84,
		"byteLength":832,
		"target":34962,
		"byteStride":32
	},
	{
		"buffer":10,
		"byteOffset":0,
		"byteLength":103800,
		"target":34963
	},
	{
		"buffer":10,
		"byteOffset":103800,
		"byteLength":501888,
		"target":34962,
		"byteStride":32
	},
	{
		"buffer":11,
		"byteOffset":0,
		"byteLength":96,
		"target":34963
	},
	{
		"buffer":11,
		"byteOffset":96,
		"byteLength":896,
		"target":34962,
		"byteStride":32
	},
	{
		"buffer":12,
		"byteOffset":0,
		"byteLength":110256,
		"target":34963
	},
	{
		"buffer":12,
		"byteOffset":110256,
		"byteLength":506944,
		"target":34962,
		"byteStride":32
	},
	{
		"buffer":13,
		"byteOffset":0,
		"byteLength":1374,
		"target":34963
	},
	{
		"buffer":13,
		"byteOffset":1376,
		"byteLength":1752,
		"target":34962
	}],
	"accessors":[{
		"bufferView":0,
		"type":"SCALAR",
		"componentType":5123,
		"max":[23],
		"count":36,
		"byteOffset":0,
		"min":[0]
	},
	{
		"bufferView":1,
		"type":"VEC3",
		"componentType":5126,
		"max":[604.50537109375,
		10.084171295166016,
		604.50537109375],
		"count":24,
		"byteOffset":0,
		"min":[-604.50537109375,
		-10.084171295166016,
		-604.50537109375]
	},
	{
		"bufferView":1,
		"type":"VEC3",
		"componentType":5126,
		"max":[1.0,
		1.0,
		1.0],
		"count":24,
		"byteOffset":12,
		"min":[-1.0,
		-1.0,
		-1.0]
	},
	{
		"bufferView":1,
		"type":"VEC2",
		"componentType":5126,
		"max":[1.0,
		1.0],
		"count":24,
		"byteOffset":24,
		"min":[0.0,
		0.0]
	},
	{
		"bufferView":2,
		"type":"SCALAR",
		"componentType":5123,
		"max":[23],
		"count":36,
		"byteOffset":0,
		"min":[0]
	},
	{
		"bufferView":3,
		"type":"VEC3",
		"componentType":5126,
		"max":[12.348041534423829,
		31.79152488708496,
		605.86181640625],
		"count":24,
		"byteOffset":0,
		"min":[-12.348041534423829,
		-31.79152488708496,
		-605.86181640625]
	},
	{
		"bufferView":3,
		"type":"VEC3",
		"componentType":5126,
		"max":[1.0,
		1.0,
		1.0],
		"count":24,
		"byteOffset":12,
		"min":[-1.0,
		-1.0,
		-1.0]
	},
	{
		"bufferView":3,
		"type":"VEC2",
		"componentType":5126,
		"max":[1.0,
		1.0],
		"count":24,
		"byteOffset":24,
		"min":[0.0,
		0.0]
	},
	{
		"bufferView":4,
		"type":"SCALAR",
		"componentType":5123,
		"max":[23],
		"count":36,
		"byteOffset":0,
		"min":[0]
	},
	{
		"bufferView":5,
		"type":"VEC3",
		"componentType":5126,
		"max":[12.348041534423829,
		31.79152488708496,
		605.86181640625],
		"count":24,
		"byteOffset":0,
		"min":[-12.348041534423829,
		-31.79152488708496,
		-605.86181640625]
	},
	{
		"bufferView":5,
		"type":"VEC3",
		"componentType":5126,
		"max":[1.0,
		1.0,
		1.0],
		"count":24,
		"byteOffset":12,
		"min":[-1.0,
		-1.0,
		-1.0]
	},
	{
		"bufferView":5,
		"type":"VEC2",
		"componentType":5126,
		"max":[1.0,
		1.0],
		"count":24,
		"byteOffset":24,
		"min":[0.0,
		0.0]
	},
	{
		"bufferView":6,
		"type":"SCALAR",
		"componentType":5123,
		"max":[23],
		"count":36,
		"byteOffset":0,
		"min":[0]
	},
	{
		"bufferView":7,
		"type":"VEC3",
		"componentType":5126,
		"max":[12.348041534423829,
		79.098388671875,
		605.281005859375],
		"count":24,
		"byteOffset":0,
		"min":[-12.348041534423829,
		-79.098388671875,
		-605.281005859375]
	},
	{
		"bufferView":7,
		"type":"VEC3",
		"componentType":5126,
		"max":[1.0,
		1.0,
		1.0],
		"count":24,
		"byteOffset":12,
		"min":[-1.0,
		-1.0,
		-1.0]
	},
	{
		"bufferView":7,
		"type":"VEC2",
		"componentType":5126,
		"max":[1.0,
		1.0],
		"count":24,
		"byteOffset":24,
		"min":[0.0,
		0.0]
	},
	{
		"bufferView":8,
		"type":"SCALAR",
		"componentType":5123,
		"max":[23],
		"count":36,
		"byteOffset":0,
		"min":[0]
	},
	{
		"bufferView":9,
		"type":"VEC3",
		"componentType":5126,
		"max":[12.348041534423829,
		31.79152488708496,
		584.6317138671875],
		"count":24,
		"byteOffset":0,
		"min":[-12.348041534423829,
		-31.79152488708496,
		-584.6317138671875]
	},
	{
		"bufferView":9,
		"type":"VEC3",
		"componentType":5126,
		"max":[1.0,
		1.0,
		1.0],
		"count":24,
		"byteOffset":12,
		"min":[-1.0,
		-1.0,
		-1.0]
	},
	{
		"bufferView":9,
		"type":"VEC2",
		"componentType":5126,
		"max":[1.0,
		1.0],
		"count":24,
		"byteOffset":24,
		"min":[0.0,
		0.0]
	},
	{
		"bufferView":10,
		"type":"SCALAR",
		"componentType":5123,
		"max":[76],
		"count":252,
		"byteOffset":0,
		"min":[0]
	},
	{
		"bufferView":11,
		"type":"VEC3",
		"componentType":5126,
		"max":[584.6317138671875,
		584.6317138671875,
		584.6317138671875],
		"count":77,
		"byteOffset":0,
		"min":[-584.6317138671875,
		-584.6317138671875,
		-584.6317138671875]
	},
	{
		"bufferView":11,
		"type":"VEC3",
		"componentType":5126,
		"max":[1.0,
		1.0,
		1.0],
		"count":77,
		"byteOffset":12,
		"min":[-1.0,
		-1.0,
		-1.0]
	},
	{
		"bufferView":11,
		"type":"VEC2",
		"componentType":5126,
		"max":[1.0,
		1.0],
		"count":77,
		"byteOffset":24,
		"min":[0.0,
		0.0]
	},
	{
		"bufferView":12,
		"type":"SCALAR",
		"componentType":5123,
		"max":[72],
		"count":324,
		"byteOffset":0,
		"min":[0]
	},
	{
		"bufferView":13,
		"type":"VEC3",
		"componentType":5126,
		"max":[931.5968627929688,
		1.1368683772161604e-13,
		733.1010131835938],
		"count":73,
		"byteOffset":0,
		"min":[-714.2357177734375,
		-1.1368683772161604e-13,
		-912.7315063476563]
	},
	{
		"bufferView":13,
		"type":"VEC3",
		"componentType":5126,
		"max":[6.108755875818862e-15,
		-1.0,
		4.703405078909271e-16],
		"count":73,
		"byteOffset":12,
		"min":[-1.980781464956498e-15,
		-1.0,
		-5.781386959067495e-15]
	},
	{
		"bufferView":13,
		"type":"VEC2",
		"componentType":5126,
		"max":[0.9705773591995239,
		0.8703111410140991],
		"count":73,
		"byteOffset":24,
		"min":[0.13921821117401124,
		0.038952067494392398]
	},
	{
		"bufferView":14,
		"type":"SCALAR",
		"componentType":5123,
		"max":[162],
		"count":579,
		"byteOffset":0,
		"min":[0]
	},
	{
		"bufferView":15,
		"type":"VEC3",
		"componentType":5126,
		"max":[584.6317138671875,
		584.6317138671875,
		584.6317138671875],
		"count":163,
		"byteOffset":0,
		"min":[-584.6317138671875,
		-584.6317138671875,
		-584.6317138671875]
	},
	{
		"bufferView":15,
		"type":"VEC3",
		"componentType":5126,
		"max":[1.0,
		1.0,
		1.0],
		"count":163,
		"byteOffset":12,
		"min":[-1.0,
		-1.0,
		-1.0]
	},
	{
		"bufferView":15,
		"type":"VEC2",
		"componentType":5126,
		"max":[1.0,
		1.0],
		"count":163,
		"byteOffset":24,
		"min":[0.0,
		0.0]
	},
	{
		"bufferView":16,
		"type":"SCALAR",
		"componentType":5123,
		"max":[15465],
		"count":71727,
		"byteOffset":0,
		"min":[0]
	},
	{
		"bufferView":17,
		"type":"VEC3",
		"componentType":5126,
		"max":[803.691162109375,
		188.4020538330078,
		658.7891235351563],
		"count":15466,
		"byteOffset":0,
		"min":[-421.7438659667969,
		6.274471759796143,
		-806.05908203125]
	},
	{
		"bufferView":18,
		"type":"SCALAR",
		"componentType":5123,
		"max":[25],
		"count":42,
		"byteOffset":0,
		"min":[0]
	},
	{
		"bufferView":19,
		"type":"VEC3",
		"componentType":5126,
		"max":[584.6317138671875,
		584.6317138671875,
		584.6317138671875],
		"count":26,
		"byteOffset":0,
		"min":[-584.6317138671875,
		-584.6317138671875,
		-584.6317138671875]
	},
	{
		"bufferView":19,
		"type":"VEC3",
		"componentType":5126,
		"max":[1.0,
		1.0,
		1.0],
		"count":26,
		"byteOffset":12,
		"min":[-1.0,
		-1.0,
		-1.0]
	},
	{
		"bufferView":19,
		"type":"VEC2",
		"componentType":5126,
		"max":[1.0,
		1.0],
		"count":26,
		"byteOffset":24,
		"min":[0.0,
		0.0]
	},
	{
		"bufferView":20,
		"type":"SCALAR",
		"componentType":5123,
		"max":[15683],
		"count":51900,
		"byteOffset":0,
		"min":[0]
	},
	{
		"bufferView":21,
		"type":"VEC3",
		"componentType":5126,
		"max":[209.6558074951172,
		149.3329315185547,
		447.9988098144531],
		"count":15684,
		"byteOffset":0,
		"min":[-524.9052734375,
		-7.815970093361102e-14,
		-447.998779296875]
	},
	{
		"bufferView":21,
		"type":"VEC3",
		"componentType":5126,
		"max":[0.7928637862205505,
		-0.4485580623149872,
		0.801512598991394],
		"count":15684,
		"byteOffset":12,
		"min":[-0.892253577709198,
		-1.0,
		-0.6901993155479431]
	},
	{
		"bufferView":21,
		"type":"VEC2",
		"componentType":5126,
		"max":[0.6997082233428955,
		1.0],
		"count":15684,
		"byteOffset":24,
		"min":[0.0,
		0.0]
	},
	{
		"bufferView":22,
		"type":"SCALAR",
		"componentType":5123,
		"max":[27],
		"count":48,
		"byteOffset":0,
		"min":[0]
	},
	{
		"bufferView":23,
		"type":"VEC3",
		"componentType":5126,
		"max":[584.6317138671875,
		584.6317138671875,
		584.6317138671875],
		"count":28,
		"byteOffset":0,
		"min":[-584.6317138671875,
		-584.6317138671875,
		-584.6317138671875]
	},
	{
		"bufferView":23,
		"type":"VEC3",
		"componentType":5126,
		"max":[1.0,
		1.0,
		1.0],
		"count":28,
		"byteOffset":12,
		"min":[-1.0,
		-1.0,
		-1.0]
	},
	{
		"bufferView":23,
		"type":"VEC2",
		"componentType":5126,
		"max":[1.0,
		1.0],
		"count":28,
		"byteOffset":24,
		"min":[0.0,
		0.0]
	},
	{
		"bufferView":24,
		"type":"SCALAR",
		"componentType":5123,
		"max":[15841],
		"count":55128,
		"byteOffset":0,
		"min":[0]
	},
	{
		"bufferView":25,
		"type":"VEC3",
		"componentType":5126,
		"max":[548.3370361328125,
		91.73660278320313,
		469.9862976074219],
		"count":15842,
		"byteOffset":0,
		"min":[-900.6504516601563,
		0.0,
		-469.986328125]
	},
	{
		"bufferView":25,
		"type":"VEC3",
		"componentType":5126,
		"max":[0.35030338168144228,
		-0.6853026747703552,
		0.7198508381843567],
		"count":15842,
		"byteOffset":12,
		"min":[-0.42852863669395449,
		-1.0,
		-0.5694097876548767]
	},
	{
		"bufferView":25,
		"type":"VEC2",
		"componentType":5126,
		"max":[0.7436559200286865,
		1.0],
		"count":15842,
		"byteOffset":24,
		"min":[0.09979204833507538,
		0.0]
	},
	{
		"bufferView":26,
		"type":"SCALAR",
		"componentType":5123,
		"max":[145],
		"count":687,
		"byteOffset":0,
		"min":[0]
	},
	{
		"bufferView":27,
		"type":"VEC3",
		"componentType":5126,
		"max":[-65.89028930664063,
		231.95326232910157,
		224.56915283203126],
		"count":146,
		"byteOffset":0,
		"min":[-186.2464141845703,
		119.99462127685547,
		96.46050262451172]
	}],
	"materials":[{
		"pbrMetallicRoughness":{
			"baseColorFactor":[0.0,
			0.0,
			0.0,
			1.0],
			"metallicFactor":0.0,
			"roughnessFactor":0.5
		},
		"emissiveFactor":[0.0,
		0.0,
		0.0],
		"alphaMode":"OPAQUE",
		"doubleSided":false,
		"name":"Mat"
	},
	{
		"pbrMetallicRoughness":{
			"baseColorFactor":[0.15199999999999998,
			0.7027999999999999,
			0.8,
			0.42999999999999996],
			"metallicFactor":0.0,
			"roughnessFactor":0.5
		},
		"emissiveFactor":[0.0,
		0.0,
		0.0],
		"alphaMode":"BLEND",
		"doubleSided":false,
		"name":"Mat.1"
	},
	{
		"pbrMetallicRoughness":{
			"baseColorFactor":[1.0,
			1.0,
			1.0,
			1.0],
			"metallicFactor":0.0,
			"roughnessFactor":0.5
		},
		"emissiveFactor":[0.0,
		0.0,
		0.0],
		"alphaMode":"OPAQUE",
		"doubleSided":false,
		"name":"CityEngineMaterial2"
	}]
}