<svg id="Calque_1" data-name="Calque 1" xmlns="http://www.w3.org/2000/svg" viewBox="0 0 479.45 348.95"><defs><style>.cls-1{fill:#072b51;}</style></defs><title>logo_poc_studio</title><path class="cls-1" d="M321.19,267.83h-94.7V223.5h94.7V210H213v71.37H321.19Z"/><rect class="cls-1" x="377.3" y="209.98" width="13.52" height="88.28"/><rect class="cls-1" x="116.84" y="177.61" width="13.52" height="120.65"/><rect class="cls-1" x="102.34" y="177.61" width="42.51" height="13.52"/><path class="cls-1" d="M178.19,210V327.7a7.73,7.73,0,1,1-15.46,0V210H149.21V327.7A21.24,21.24,0,0,0,170.46,349h0a21.25,21.25,0,0,0,21.26-21.25V210Z"/><path class="cls-1" d="M21.25,223.5H89.11V210H21.25A21.25,21.25,0,0,0,0,231.23H0a21.25,21.25,0,0,0,21.25,21.25l52-.12h3.09a7.74,7.74,0,0,1,0,15.47H8.45v13.52H76.31A21.24,21.24,0,0,0,97.56,260.1h0a21.25,21.25,0,0,0-21.25-21.26H27.92V239H21.25a7.73,7.73,0,1,1,0-15.46Z"/><path class="cls-1" d="M321.19,281.35V267.83a22.17,22.17,0,1,0,0-44.33V210a35.69,35.69,0,1,1,0,71.37Z"/><path class="cls-1" d="M443.76,210V223.5a22.17,22.17,0,0,0,0,44.33v13.52a35.69,35.69,0,0,1,0-71.37Z"/><path class="cls-1" d="M443.76,281.35V267.83a22.17,22.17,0,1,0,0-44.33V210a35.69,35.69,0,1,1,0,71.37Z"/><circle class="cls-1" cx="384.06" cy="184.37" r="9.68"/><path class="cls-1" d="M126.89,34.72H0V191.13H89.11V164.38h37.78a64.83,64.83,0,0,0,0-129.66ZM102.34,144.53a6.62,6.62,0,1,1-13.23,0v-90a6.62,6.62,0,1,1,13.23,0Z"/><path class="cls-1" d="M448.36,105.92v38.81a6.62,6.62,0,0,1-13.23,0v-90a6.62,6.62,0,1,1,13.23,0V93.18h31.09V79a44.32,44.32,0,0,0-44.32-44.32h0A44.32,44.32,0,0,0,390.82,79v41a44.31,44.31,0,0,0,44.31,44.32h0a44.32,44.32,0,0,0,44.32-44.32V105.92Z"/><path class="cls-1" d="M291.27,0a99.55,99.55,0,1,0,99.55,99.55A99.55,99.55,0,0,0,291.27,0Zm56.31,132.26-33.32-9.52,9.52,33.32-24.1-24.91-8.41,33.62-8.42-33.62-24.1,24.91,9.53-33.32L235,132.26l24.91-24.1-33.62-8.41,33.62-8.42L235,67.24l33.33,9.52-9.53-33.32,24.1,24.9,8.42-33.62,8.41,33.62,24.1-24.9-9.52,33.32,33.32-9.52L322.67,91.33l33.62,8.42-33.62,8.41Z"/></svg>