<?xml version="1.0" encoding="utf-8"?>
<!-- Generator: Adobe Illustrator 23.0.6, SVG Export Plug-In . SVG Version: 6.00 Build 0)  -->
<svg version="1.1" id="Calque_1" xmlns="http://www.w3.org/2000/svg" xmlns:xlink="http://www.w3.org/1999/xlink" x="0px" y="0px"
	 viewBox="0 0 479.5 349" style="enable-background:new 0 0 479.5 349;" xml:space="preserve">
<style type="text/css">
	.st0{fill:#072B51;}
</style>
<title>logo_poc_studio</title>
<g>
	<g>
		<path class="st0" d="M126.9,56.2h-24.5H89.1H0v156.4h89.1v-26.7h13.2v0h24.5c35.8,0,64.8-29,64.8-64.8l0,0
			C191.7,85.2,162.7,56.2,126.9,56.2z M114.8,166c0,3.7-3,6.6-6.6,6.6c-3.7,0-6.6-3-6.6-6.6V76c0-3.7,3-6.6,6.6-6.6
			c3.7,0,6.6,3,6.6,6.6V166z"/>
		<path class="st0" d="M451.5,154.4v38.6c0,3.7-3,6.6-6.6,6.6s-6.6-3-6.6-6.6v-90c0-3.7,3-6.6,6.6-6.6s6.6,3,6.6,6.6v38.2h28v-13.9
			c0-24.5-19.8-44.3-44.3-44.3h0c-24.5,0-44.3,19.8-44.3,44.3v41c0,24.5,19.8,44.3,44.3,44.3h0c24.5,0,44.3-19.8,44.3-44.3v-13.9
			H451.5z"/>
		<path class="st0" d="M291.3,21.5c-55,0-99.6,44.6-99.6,99.6c0,55,44.6,99.6,99.6,99.6c55,0,99.6-44.6,99.6-99.6
			C390.8,66,346.2,21.5,291.3,21.5z M347.6,153.7l-33.3-9.5l9.5,33.3l-24.1-24.9l-8.4,33.6l-8.4-33.6l-24.1,24.9l9.5-33.3l-33.3,9.5
			l24.9-24.1l-33.6-8.4l33.6-8.4L235,88.7l33.3,9.5l-9.5-33.3l24.1,24.9l8.4-33.6l8.4,33.6l24.1-24.9l-9.5,33.3l33.3-9.5l-24.9,24.1
			l33.6,8.4l-33.6,8.4L347.6,153.7z"/>
	</g>
	<g>
		<path class="st0" d="M117,286H108v39.7h-9.3V286h-9.1v-7.9H117V286z"/>
		<path class="st0" d="M189.5,261.3v35.6c0,3.4,1.5,5.3,4.3,5.3c2.7,0,4.3-1.9,4.3-5.3v-35.6h9.3v36c0,7.9-4.8,12.8-13.6,12.8
			c-8.8,0-13.6-4.9-13.6-12.8v-36H189.5z"/>
		<path class="st0" d="M270.2,278.1h12.6c9.9,0,15.3,5.7,15.3,16.4v14.1c0,11.2-5.3,17.1-15.4,17.1h-12.5V278.1z M282.4,319
			c4.2,0,6.1-3.4,6.1-9.7v-15.2c0-6.4-1.8-9.3-6.1-9.3h-2.9V319H282.4z"/>
		<path class="st0" d="M369.9,309v-47.6h9.3V309H369.9z"/>
		<path class="st0" d="M450.5,311.8v-19.7c0-9.7,5.4-15.1,14.4-15.1c9.1,0,14.5,5.4,14.5,15.1v19.7c0,9.7-5.4,15.1-14.5,15.1
			C455.9,326.9,450.5,321.5,450.5,311.8z M469.9,312.9v-22c0-4.3-1.7-6.6-4.9-6.6c-3.1,0-4.8,2.3-4.8,6.6v22c0,4.3,1.7,6.6,4.8,6.6
			C468.1,319.6,469.9,317.2,469.9,312.9z"/>
		<path class="st0" d="M19.6,283.2l-6.8-4.2c-2.2-1.4-3.4-3.2-3.4-5.6v-2.1c0-2.3,1.3-4,3.7-4c2.8,0,4,2.1,4,5.3v3.4h9.3v-3.5
			c0-9-5.1-12.2-13.2-12.2c-7.3,0-13.1,3.8-13.1,11.6v2.5c0,5,1.7,8.6,6.6,11.5l6.8,4.2c3,2,3.5,3.4,3.5,6.4v1.9
			c0,2.6-1.1,4.6-3.8,4.6c-2.8,0-4-2.2-4-6v-3.6h-9.5v3.8c0,8,4.8,13,13.4,13c8.8,0,13.4-4.8,13.4-11.6v-3.6
			C26.3,289.8,25,286.5,19.6,283.2z"/>
	</g>
</g>
</svg>
