{
  "accessors": [
    {
      "bufferView": 2,
      "componentType": 5126,
      "count": 24,
      "max": [
        396.74713134765625,
        -315.8070068359375,
        22.955917358398438
      ],
      "min": [
        387.01611328125,
        -703.56292724609375,
        10.755431175231934
      ],
      "type": "VEC3"
    },
    {
      "bufferView": 2,
      "byteOffset": 288,
      "componentType": 5126,
      "count": 24,
      "max": [
        0.99996429681777954,
        0.99996435642242432,
        1
      ],
      "min": [
        -0.99996429681777954,
        -0.99996435642242432,
        -1
      ],
      "type": "VEC3"
    },
    {
      "bufferView": 1,
      "componentType": 5126,
      "count": 24,
      "max": [
        1,
        1
      ],
      "min": [
        0,
        0
      ],
      "type": "VEC2"
    },
    {
      "bufferView": 0,
      "componentType": 5125,
      "count": 36,
      "max": [
        23
      ],
      "min": [
        0
      ],
      "type": "SCALAR"
    },
    {
      "bufferView": 2,
      "byteOffset": 576,
      "componentType": 5126,
      "count": 828,
      "max": [
        788.41864013671875,
        580.567138671875,
        321.0028076171875
      ],
      "min": [
        705.69439697265625,
        507.59088134765625,
        173.8348388671875
      ],
      "type": "VEC3"
    },
    {
      "bufferView": 2,
      "byteOffset": 10512,
      "componentType": 5126,
      "count": 828,
      "max": [
        0.77274352312088013,
        0.77289992570877075,
        1
      ],
      "min": [
        -0.7727431058883667,
        -0.7727895975112915,
        -1
      ],
      "type": "VEC3"
    },
    {
      "bufferView": 1,
      "byteOffset": 192,
      "componentType": 5126,
      "count": 828,
      "max": [
        1,
        1
      ],
      "min": [
        0,
        0
      ],
      "type": "VEC2"
    },
    {
      "bufferView": 0,
      "byteOffset": 144,
      "componentType": 5125,
      "count": 2424,
      "max": [
        827
      ],
      "min": [
        0
      ],
      "type": "SCALAR"
    },
    {
      "bufferView": 2,
      "byteOffset": 20448,
      "componentType": 5126,
      "count": 84,
      "max": [
        1210.4510498046875,
        895.8475341796875,
        18.783655166625977
      ],
      "min": [
        -435.38143920898438,
        -749.98504638671875,
        18.783655166625977
      ],
      "type": "VEC3"
    },
    {
      "bufferView": 2,
      "byteOffset": 21456,
      "componentType": 5126,
      "count": 84,
      "max": [
        0,
        0,
        -0.99999994039535522
      ],
      "min": [
        0,
        0,
        -1
      ],
      "type": "VEC3"
    },
    {
      "bufferView": 1,
      "byteOffset": 6816,
      "componentType": 5126,
      "count": 84,
      "max": [
        0.97057735919952393,
        0.9610479474067688
      ],
      "min": [
        0.13921821117401123,
        0.12968885898590088
      ],
      "type": "VEC2"
    },
    {
      "bufferView": 0,
      "byteOffset": 9840,
      "componentType": 5125,
      "count": 324,
      "max": [
        83
      ],
      "min": [
        0
      ],
      "type": "SCALAR"
    },
    {
      "bufferView": 2,
      "byteOffset": 22464,
      "componentType": 5126,
      "count": 41643,
      "max": [
        803.691162109375,
        806.05908203125,
        188.40205383300781
      ],
      "min": [
        -421.74386596679688,
        -658.78912353515625,
        6.2744717597961426
      ],
      "type": "VEC3"
    },
    {
      "bufferView": 2,
      "byteOffset": 522180,
      "componentType": 5126,
      "count": 41643,
      "max": [
        1,
        1,
        1
      ],
      "min": [
        -1,
        -1,
        -1
      ],
      "type": "VEC3"
    },
    {
      "bufferView": 0,
      "byteOffset": 11136,
      "componentType": 5125,
      "count": 71583,
      "max": [
        41642
      ],
      "min": [
        0
      ],
      "type": "SCALAR"
    },
    {
      "bufferView": 2,
      "byteOffset": 1021896,
      "componentType": 5126,
      "count": 367,
      "max": [
        693.3270263671875,
        552.46990966796875,
        278.69677734375
      ],
      "min": [
        572.16961669921875,
        415.60479736328125,
        166.73812866210938
      ],
      "type": "VEC3"
    },
    {
      "bufferView": 2,
      "byteOffset": 1026300,
      "componentType": 5126,
      "count": 367,
      "max": [
        0.79238659143447876,
        0.79238677024841309,
        1
      ],
      "min": [
        -0.81862622499465942,
        -0.79238641262054443,
        -1
      ],
      "type": "VEC3"
    },
    {
      "bufferView": 0,
      "byteOffset": 297468,
      "componentType": 5125,
      "count": 675,
      "max": [
        366
      ],
      "min": [
        0
      ],
      "type": "SCALAR"
    },
    {
      "bufferView": 2,
      "byteOffset": 1030704,
      "componentType": 5126,
      "count": 98,
      "max": [
        394.15853881835938,
        824.67694091796875,
        20.14112663269043
      ],
      "min": [
        -394.15853881835938,
        -689.6226806640625,
        20.14112663269043
      ],
      "type": "VEC3"
    },
    {
      "bufferView": 2,
      "byteOffset": 1031880,
      "componentType": 5126,
      "count": 98,
      "max": [
        0,
        0,
        -0.99999994039535522
      ],
      "min": [
        0,
        0,
        -1
      ],
      "type": "VEC3"
    },
    {
      "bufferView": 1,
      "byteOffset": 7488,
      "componentType": 5126,
      "count": 98,
      "max": [
        1,
        1
      ],
      "min": [
        0,
        0.090131878852844238
      ],
      "type": "VEC2"
    },
    {
      "bufferView": 0,
      "byteOffset": 300168,
      "componentType": 5125,
      "count": 396,
      "max": [
        97
      ],
      "min": [
        0
      ],
      "type": "SCALAR"
    },
    {
      "bufferView": 2,
      "byteOffset": 1033056,
      "componentType": 5126,
      "count": 15770,
      "max": [
        1121.23193359375,
        895.8475341796875,
        173.07987976074219
      ],
      "min": [
        218.8028564453125,
        160.39796447753906,
        23.746942520141602
      ],
      "type": "VEC3"
    },
    {
      "bufferView": 2,
      "byteOffset": 1222296,
      "componentType": 5126,
      "count": 15770,
      "max": [
        0.7858351469039917,
        0.79423153400421143,
        0.0072818300686776638
      ],
      "min": [
        -0.77219730615615845,
        -0.89238953590393066,
        -1
      ],
      "type": "VEC3"
    },
    {
      "bufferView": 1,
      "byteOffset": 8272,
      "componentType": 5126,
      "count": 15770,
      "max": [
        0.69970822334289551,
        1
      ],
      "min": [
        0,
        0
      ],
      "type": "VEC2"
    },
    {
      "bufferView": 0,
      "byteOffset": 301752,
      "componentType": 5125,
      "count": 51900,
      "max": [
        15769
      ],
      "min": [
        0
      ],
      "type": "SCALAR"
    },
    {
      "bufferView": 2,
      "byteOffset": 1411536,
      "componentType": 5126,
      "count": 16025,
      "max": [
        1210.4510498046875,
        696.84454345703125,
        105.72327423095703
      ],
      "min": [
        -435.38143920898438,
        -612.2021484375,
        13.986673355102539
      ],
      "type": "VEC3"
    },
    {
      "bufferView": 2,
      "byteOffset": 1603836,
      "componentType": 5126,
      "count": 16025,
      "max": [
        0.63739597797393799,
        0.77303260564804077,
        0.11541536450386047
      ],
      "min": [
        -0.7711414098739624,
        -0.77688932418823242,
        -1
      ],
      "type": "VEC3"
    },
    {
      "bufferView": 1,
      "byteOffset": 134432,
      "componentType": 5126,
      "count": 16025,
      "max": [
        0.74365592002868652,
        1
      ],
      "min": [
        0.099792048335075378,
        0
      ],
      "type": "VEC2"
    },
    {
      "bufferView": 0,
      "byteOffset": 509352,
      "componentType": 5125,
      "count": 55128,
      "max": [
        16024
      ],
      "min": [
        0
      ],
      "type": "SCALAR"
    },
    {
      "bufferView": 2,
      "byteOffset": 1796136,
      "componentType": 5126,
      "count": 120,
      "max": [
        1237.0872802734375,
        927.72088623046875,
        175.93510437011719
      ],
      "min": [
        -468.125732421875,
        -777.7640380859375,
        -2.643653392791748
      ],
      "type": "VEC3"
    },
    {
      "bufferView": 2,
      "byteOffset": 1797576,
      "componentType": 5126,
      "count": 120,
      "max": [
        0.77219516038894653,
        0.77219563722610474,
        1
      ],
      "min": [
        -0.77219516038894653,
        -0.77219510078430176,
        -1
      ],
      "type": "VEC3"
    },
    {
      "bufferView": 1,
      "byteOffset": 262632,
      "componentType": 5126,
      "count": 120,
      "max": [
        1,
        1
      ],
      "min": [
        0,
        0
      ],
      "type": "VEC2"
    },
    {
      "bufferView": 0,
      "byteOffset": 729864,
      "componentType": 5125,
      "count": 180,
      "max": [
        119
      ],
      "min": [
        0
      ],
      "type": "SCALAR"
    },
    {
      "bufferView": 2,
      "byteOffset": 1799016,
      "componentType": 5126,
      "count": 3930,
      "max": [
        1236.141845703125,
        920.0548095703125,
        320.6121826171875
      ],
      "min": [
        292.38235473632812,
        139.83834838867188,
        175.3973388671875
      ],
      "type": "VEC3"
    },
    {
      "bufferView": 2,
      "byteOffset": 1846176,
      "componentType": 5126,
      "count": 3930,
      "max": [
        1,
        1,
        1
      ],
      "min": [
        -0.77274477481842041,
        -0.77288442850112915,
        -1
      ],
      "type": "VEC3"
    },
    {
      "bufferView": 1,
      "byteOffset": 263592,
      "componentType": 5126,
      "count": 3930,
      "max": [
        1,
        1
      ],
      "min": [
        0,
        0
      ],
      "type": "VEC2"
    },
    {
      "bufferView": 0,
      "byteOffset": 730584,
      "componentType": 5125,
      "count": 10740,
      "max": [
        3929
      ],
      "min": [
        0
      ],
      "type": "SCALAR"
    }
  ],
  "asset": {
    "extras": {
      "author": "Antoine.Pdr (https://sketchfab.com/Antoine.Pdr)",
      "license": "CC-BY-4.0 (http://creativecommons.org/licenses/by/4.0/)",
      "source": "https://sketchfab.com/3d-models/marseille-83c6d0e0e761477ba249c3c8d68442cd",
      "title": "Marseille"
    },
    "generator": "Sketchfab-9.55.0",
    "version": "2.0"
  },
  "bufferViews": [
    {
      "buffer": 0,
      "byteLength": 773544,
      "byteOffset": 0,
      "name": "floatBufferViews",
      "target": 34963
    },
    {
      "buffer": 0,
      "byteLength": 295032,
      "byteOffset": 773544,
      "byteStride": 8,
      "name": "floatBufferViews",
      "target": 34962
    },
    {
      "buffer": 0,
      "byteLength": 1893336,
      "byteOffset": 1068576,
      "byteStride": 12,
      "name": "floatBufferViews",
      "target": 34962
    }
  ],
  "buffers": [
    {
      "byteLength": 2961912,
      "uri": "scene.bin"
    }
  ],
  "materials": [
    {
      "doubleSided": true,
      "name": "CityEngineMaterial2",
      "pbrMetallicRoughness": {
        "baseColorFactor": [
          1,
          1,
          1,
          1
        ],
        "metallicFactor": 0,
        "roughnessFactor": 0.59999999999999998
      }
    },
    {
      "doubleSided": true,
      "name": "material",
      "pbrMetallicRoughness": {
        "baseColorFactor": [
          1,
          1,
          1,
          1
        ],
        "metallicFactor": 0,
        "roughnessFactor": 0.59999999999999998
      }
    },
    {
      "doubleSided": true,
      "name": "Mat.1",
      "pbrMetallicRoughness": {
        "baseColorFactor": [
          1,
          1,
          1,
          1
        ],
        "metallicFactor": 0,
        "roughnessFactor": 0.59999999999999998
      }
    },
    {
      "doubleSided": true,
      "name": "Mat_1",
      "pbrMetallicRoughness": {
        "baseColorFactor": [
          1,
          1,
          1,
          1
        ],
        "metallicFactor": 0,
        "roughnessFactor": 0.59999999999999998
      }
    },
    {
      "doubleSided": true,
      "name": "default",
      "pbrMetallicRoughness": {
        "baseColorFactor": [
          1,
          1,
          1,
          1
        ],
        "metallicFactor": 0,
        "roughnessFactor": 0.59999999999999998
      }
    }
  ],
  "meshes": [
    {
      "primitives": [
        {
          "attributes": {
            "NORMAL": 1,
            "POSITION": 0,
            "TEXCOORD_0": 2
          },
          "indices": 3,
          "material": 1,
          "mode": 4
        }
      ]
    },
    {
      "primitives": [
        {
          "attributes": {
            "NORMAL": 5,
            "POSITION": 4,
            "TEXCOORD_0": 6
          },
          "indices": 7,
          "material": 4,
          "mode": 4
        }
      ]
    },
    {
      "primitives": [
        {
          "attributes": {
            "NORMAL": 9,
            "POSITION": 8,
            "TEXCOORD_0": 10
          },
          "indices": 11,
          "material": 2,
          "mode": 4
        }
      ]
    },
    {
      "primitives": [
        {
          "attributes": {
            "NORMAL": 13,
            "POSITION": 12
          },
          "indices": 14,
          "material": 0,
          "mode": 4
        }
      ]
    },
    {
      "primitives": [
        {
          "attributes": {
            "NORMAL": 16,
            "POSITION": 15
          },
          "indices": 17,
          "material": 0,
          "mode": 4
        }
      ]
    },
    {
      "primitives": [
        {
          "attributes": {
            "NORMAL": 19,
            "POSITION": 18,
            "TEXCOORD_0": 20
          },
          "indices": 21,
          "material": 1,
          "mode": 4
        }
      ]
    },
    {
      "primitives": [
        {
          "attributes": {
            "NORMAL": 23,
            "POSITION": 22,
            "TEXCOORD_0": 24
          },
          "indices": 25,
          "material": 1,
          "mode": 4
        }
      ]
    },
    {
      "primitives": [
        {
          "attributes": {
            "NORMAL": 27,
            "POSITION": 26,
            "TEXCOORD_0": 28
          },
          "indices": 29,
          "material": 1,
          "mode": 4
        }
      ]
    },
    {
      "primitives": [
        {
          "attributes": {
            "NORMAL": 31,
            "POSITION": 30,
            "TEXCOORD_0": 32
          },
          "indices": 33,
          "material": 3,
          "mode": 4
        }
      ]
    },
    {
      "primitives": [
        {
          "attributes": {
            "NORMAL": 35,
            "POSITION": 34,
            "TEXCOORD_0": 36
          },
          "indices": 37,
          "material": 4,
          "mode": 4
        }
      ]
    }
  ],
  "nodes": [
    {
      "children": [
        1
      ],
      "name": "RootNode (gltf orientation matrix)",
      "rotation": [
        -0.70710678118654746,
        -0,
        -0,
        0.70710678118654757
      ]
    },
    {
      "children": [
        2
      ],
      "name": "RootNode (model correction matrix)"
    },
    {
      "children": [
        3,
        4,
        5,
        6,
        7,
        8,
        9,
        10,
        11,
        12
      ],
      "name": "Marseille2.obj.cleaner.materialmerger.gles"
    },
    {
      "mesh": 0,
      "name": ""
    },
    {
      "mesh": 1,
      "name": ""
    },
    {
      "mesh": 2,
      "name": ""
    },
    {
      "mesh": 3,
      "name": ""
    },
    {
      "mesh": 4,
      "name": ""
    },
    {
      "mesh": 5,
      "name": ""
    },
    {
      "mesh": 6,
      "name": ""
    },
    {
      "mesh": 7,
      "name": ""
    },
    {
      "mesh": 8,
      "name": ""
    },
    {
      "mesh": 9,
      "name": ""
    }
  ],
  "scene": 0,
  "scenes": [
    {
      "name": "OSG_Scene",
      "nodes": [
        0
      ]
    }
  ]
}

