{
	"materials":[{
		"pbrMetallicRoughness":{
			"baseColorFactor":[0.8,
			0.8,
			0.8,
			1.0],
			"metallicFactor":0.0,
			"roughnessFactor":0.5
		},
		"emissiveFactor":[0.0,
		0.0,
		0.0],
		"alphaMode":"OPAQUE",
		"doubleSided":false,
		"name":"Mat"
	}],
	"asset":{
		"version":"2.0",
		"generator":"Created using the official Cinema 4D glTF Exporter 1.000x284978"
	},
	"scenes":[{
		"nodes":[0]
	}],
	"nodes":[{
		"name":"grp1",
		"translation":[-4.864855928991481e-38,
		5.6204986572265629,
		3.5697838279073986e-16],
		"rotation":[0.5,
		0.4999999701976776,
		0.4999999701976776,
		-0.5],
		"scale":[1.0,
		1.0,
		1.0],
		"mesh":0
	}],
	"meshes":[{
		"name":"grp1",
		"primitives":[{
			"attributes":{
				"POSITION":1,
				"TEXCOORD_0":2
			},
			"indices":0,
			"material":0
		}]
	}],
	"accessors":[{
		"bufferView":0,
		"type":"SCALAR",
		"componentType":5123,
		"count":6246,
		"byteOffset":0,
		"min":[0],
		"max":[4702]
	},
	{
		"bufferView":1,
		"type":"VEC3",
		"componentType":5126,
		"count":4703,
		"byteOffset":0,
		"min":[-72.22100830078125,
		-484.0404357910156,
		1.528290033340454],
		"max":[72.22313690185547,
		277.95947265625,
		332.753173828125]
	},
	{
		"bufferView":1,
		"type":"VEC2",
		"componentType":5126,
		"count":4703,
		"byteOffset":12,
		"min":[-0.9184569716453552,
		0.004428982734680176],
		"max":[0.9716799855232239,
		0.9980469942092896]
	}],
	"bufferViews":[{
		"buffer":0,
		"byteOffset":0,
		"byteLength":12492,
		"target":34963
	},
	{
		"buffer":0,
		"byteOffset":12492,
		"byteLength":94060,
		"target":34962,
		"byteStride":20
	}],
	"buffers":[{
		"uri":"data:application/octet-stream;base64,",
		"byteLength":106552
	}]
}