{
   "accessors" : [
      {
         "bufferView" : 2,
         "byteOffset" : 0,
         "componentType" : 5126,
         "count" : 7461,
         "max" : [ 1, 0.6940805315971375, 0.7226724624633789, 1 ],
         "min" : [ 0.006584956776350737, 0.006584956776350737, 0.006584956776350737, 1 ],
         "name" : "accessor_color_m0-PolyPaper2_-97788",
         "type" : "VEC4"
      },
      {
         "bufferView" : 2,
         "byteOffset" : 119376,
         "componentType" : 5126,
         "count" : 48,
         "max" : [ 1, 1, 1, 1 ],
         "min" : [ 1, 1, 1, 1 ],
         "name" : "accessor_color_m2-PolyGem25_-97800",
         "type" : "VEC4"
      },
      {
         "bufferView" : 0,
         "byteOffset" : 0,
         "componentType" : 5123,
         "count" : 11139,
         "max" : [ 7460 ],
         "min" : [ 0 ],
         "name" : "accessor_indices_0_m0-PolyPaper2_-97788",
         "type" : "SCALAR"
      },
      {
         "bufferView" : 0,
         "byteOffset" : 22278,
         "componentType" : 5123,
         "count" : 72,
         "max" : [ 47 ],
         "min" : [ 0 ],
         "name" : "accessor_indices_0_m2-PolyGem25_-97800",
         "type" : "SCALAR"
      },
      {
         "bufferView" : 1,
         "byteOffset" : 89532,
         "componentType" : 5126,
         "count" : 7461,
         "max" : [ 1, 1, 1 ],
         "min" : [ -1, -1, -1 ],
         "name" : "accessor_normal_m0-PolyPaper2_-97788",
         "type" : "VEC3"
      },
      {
         "bufferView" : 1,
         "byteOffset" : 179640,
         "componentType" : 5126,
         "count" : 48,
         "max" : [ 1, 1, 1 ],
         "min" : [ -1, -1, -1 ],
         "name" : "accessor_normal_m2-PolyGem25_-97800",
         "type" : "VEC3"
      },
      {
         "bufferView" : 1,
         "byteOffset" : 0,
         "componentType" : 5126,
         "count" : 7461,
         "max" : [ 0.2114708, 1.525956, -0.1368769 ],
         "min" : [ -0.5742509, 1.035614, -1.664768 ],
         "name" : "accessor_position_m0-PolyPaper2_-97788",
         "type" : "VEC3"
      },
      {
         "bufferView" : 1,
         "byteOffset" : 179064,
         "componentType" : 5126,
         "count" : 48,
         "max" : [ 0.0598077, 1.37007, -0.1898969 ],
         "min" : [ -0.3699789, 1.308189, -0.2151031 ],
         "name" : "accessor_position_m2-PolyGem25_-97800",
         "type" : "VEC3"
      }
   ],
   "asset" : {
      "copyright" : "Unknown",
      "extras" : {
         "GOOGLE_processor_version" : 294144208
      },
      "generator" : "glTF 1-to-2 Upgrader for Google Blocks",
      "version" : "2.0"
   },
   "bufferViews" : [
      {
         "buffer" : 0,
         "byteLength" : 22422,
         "byteOffset" : 0,
         "name" : "ushortBufferView",
         "target" : 34963
      },
      {
         "buffer" : 0,
         "byteLength" : 180216,
         "byteOffset" : 22422,
         "byteStride" : 12,
         "name" : "vec3BufferView",
         "target" : 34962
      },
      {
         "buffer" : 0,
         "byteLength" : 120144,
         "byteOffset" : 202638,
         "byteStride" : 16,
         "name" : "vec4BufferView",
         "target" : 34962
      }
   ],
   "buffers" : [
      {
         "byteLength" : 322782,
         "name" : "model",
         "uri" : "model.bin"
      }
   ],
   "cameras" : [
      {
         "perspective" : {
            "yfov" : 0.7853981633974483,
            "znear" : 0.1000000014901161
         },
         "type" : "perspective"
      }
   ],
   "extensions" : {
      "KHR_lights_punctual" : {
         "lights" : [
            {
               "color" : [ 1, 0.9333333333333333, 0.8666666666666667 ],
               "intensity" : 0.25,
               "name" : "headLight",
               "type" : "directional"
            },
            {
               "color" : [ 1, 0.9333333333333333, 0.8666666666666667 ],
               "intensity" : 0.324999988079071,
               "name" : "keyLight",
               "type" : "directional"
            }
         ]
      }
   },
   "extensionsUsed" : [ "GOOGLE_backgrounds", "GOOGLE_camera_settings", "KHR_lights_punctual" ],
   "extras" : {
      "GOOGLE_initial_camera_motion" : {
         "motionPath" : "FULL_ROTATION"
      },
      "GOOGLE_lighting_rig" : {
         "disableShadows" : false
      }
   },
   "materials" : [
      {
         "alphaMode" : "OPAQUE",
         "doubleSided" : false,
         "name" : "BlocksPaper",
         "pbrMetallicRoughness" : {
            "baseColorFactor" : [ 1, 1, 1, 1 ],
            "metallicFactor" : 0,
            "roughnessFactor" : 0.6
         }
      },
      {
         "alphaMode" : "BLEND",
         "doubleSided" : false,
         "name" : "BlocksGlass",
         "pbrMetallicRoughness" : {
            "baseColorFactor" : [ 0.2, 0.2, 1, 0.3 ],
            "metallicFactor" : 1,
            "roughnessFactor" : 0.4
         }
      },
      {
         "alphaMode" : "OPAQUE",
         "doubleSided" : true,
         "name" : "BlocksGem",
         "pbrMetallicRoughness" : {
            "baseColorFactor" : [ 1, 0.4, 1, 1 ],
            "metallicFactor" : 0,
            "roughnessFactor" : 0.1
         }
      }
   ],
   "meshes" : [
      {
         "name" : "mesh_m0-PolyPaper2_-97788",
         "primitives" : [
            {
               "attributes" : {
                  "COLOR_0" : 0,
                  "NORMAL" : 4,
                  "POSITION" : 6
               },
               "indices" : 2,
               "material" : 0,
               "mode" : 4
            }
         ]
      },
      {
         "name" : "mesh_m2-PolyGem25_-97800",
         "primitives" : [
            {
               "attributes" : {
                  "COLOR_0" : 1,
                  "NORMAL" : 5,
                  "POSITION" : 7
               },
               "indices" : 3,
               "material" : 2,
               "mode" : 4
            }
         ]
      }
   ],
   "nodes" : [
      {
         "mesh" : 0,
         "name" : "node_MeshObject1549190144-PolyPaper2"
      },
      {
         "mesh" : 1,
         "name" : "node_MeshObject1848351744-PolyGem25"
      },
      {
         "children" : [ 3 ]
      },
      {
         "children" : [ 4 ],
         "extras" : {
            "isTransformNode" : 1
         },
         "translation" : [ -0.1884942500709029, 1.289743410816901, -0.9057341344918295 ]
      },
      {
         "children" : [ 0, 1 ],
         "translation" : [ 0.1884942500709029, -1.289743410816901, 0.9057341344918295 ]
      },
      {
         "camera" : 0,
         "children" : [ 6 ],
         "rotation" : [
            -0.15840100747699,
            0.3933241448717306,
            0.06899397885423339,
            0.9030199714142864
         ],
         "translation" : [ 1.126934609244227, 1.934622693632118, 0.479386285182693 ]
      },
      {
         "extensions" : {
            "KHR_lights_punctual" : {
               "light" : 0
            }
         },
         "extras" : {
            "isHeadLight" : 1
         },
         "name" : "headLightNode",
         "translation" : [ -1.019995528994943, 0.5099977644974717, 0.5099977644974717 ]
      },
      {
         "extensions" : {
            "KHR_lights_punctual" : {
               "light" : 1
            }
         },
         "extras" : {
            "isKeyLight" : 1
         },
         "name" : "keyLightNode",
         "rotation" : [ -0.7505326882858236, -0.3752663441429118, 0, 0.5439447166468927 ],
         "scale" : [ 0, 0, 1.030195484284893 ],
         "translation" : [ -1.22352182440349, 3.233397927689392, -2.029950107395344 ]
      }
   ],
   "scene" : 0,
   "scenes" : [
      {
         "extensions" : {
            "GOOGLE_backgrounds" : {
               "color" : [ 0.9254901960784314, 0.2509803921568627, 0.4784313725490196 ]
            },
            "GOOGLE_camera_settings" : {
               "pivot" : [ 0, 0, 0 ]
            }
         },
         "extras" : {
            "GOOGLE_camera_index" : {
               "cameraIndex" : 0,
               "nodeIndex" : 5
            },
            "GOOGLE_geometry_data" : {
               "stats" : {
                  "centroid" : [ -0.1933263401185975, 1.173006959119607, -0.9997546231104508 ],
                  "radius" : 1.019995528994943,
                  "stdev" : 0.4785587324827127
               },
               "visualCenterPoint" : [ -0.1884942500709029, 1.289743410816901, -0.9057341344918295 ]
            },
            "GOOGLE_hemi_light" : {
               "groundColor" : [ 0.9254901960784314, 0.2509803921568627, 0.4784313725490196 ]
            }
         },
         "name" : "defaultScene",
         "nodes" : [ 2, 5, 7 ]
      }
   ]
}
